<svg width="19" height="19" viewBox="0 0 19 19" fill="none" xmlns="http://www.w3.org/2000/svg">
<g id="ic:round-list">
<path id="Vector" d="M3.16667 10.2917C3.60208 10.2917 3.95833 9.9355 3.95833 9.50008C3.95833 9.06466 3.60208 8.70841 3.16667 8.70841C2.73125 8.70841 2.375 9.06466 2.375 9.50008C2.375 9.9355 2.73125 10.2917 3.16667 10.2917ZM3.16667 13.4584C3.60208 13.4584 3.95833 13.1022 3.95833 12.6667C3.95833 12.2313 3.60208 11.8751 3.16667 11.8751C2.73125 11.8751 2.375 12.2313 2.375 12.6667C2.375 13.1022 2.73125 13.4584 3.16667 13.4584ZM3.16667 7.12508C3.60208 7.12508 3.95833 6.76883 3.95833 6.33341C3.95833 5.898 3.60208 5.54175 3.16667 5.54175C2.73125 5.54175 2.375 5.898 2.375 6.33341C2.375 6.76883 2.73125 7.12508 3.16667 7.12508ZM6.33333 10.2917H15.8333C16.2688 10.2917 16.625 9.9355 16.625 9.50008C16.625 9.06466 16.2688 8.70841 15.8333 8.70841H6.33333C5.89792 8.70841 5.54167 9.06466 5.54167 9.50008C5.54167 9.9355 5.89792 10.2917 6.33333 10.2917ZM6.33333 13.4584H15.8333C16.2688 13.4584 16.625 13.1022 16.625 12.6667C16.625 12.2313 16.2688 11.8751 15.8333 11.8751H6.33333C5.89792 11.8751 5.54167 12.2313 5.54167 12.6667C5.54167 13.1022 5.89792 13.4584 6.33333 13.4584ZM5.54167 6.33341C5.54167 6.76883 5.89792 7.12508 6.33333 7.12508H15.8333C16.2688 7.12508 16.625 6.76883 16.625 6.33341C16.625 5.898 16.2688 5.54175 15.8333 5.54175H6.33333C5.89792 5.54175 5.54167 5.898 5.54167 6.33341ZM3.16667 10.2917C3.60208 10.2917 3.95833 9.9355 3.95833 9.50008C3.95833 9.06466 3.60208 8.70841 3.16667 8.70841C2.73125 8.70841 2.375 9.06466 2.375 9.50008C2.375 9.9355 2.73125 10.2917 3.16667 10.2917ZM3.16667 13.4584C3.60208 13.4584 3.95833 13.1022 3.95833 12.6667C3.95833 12.2313 3.60208 11.8751 3.16667 11.8751C2.73125 11.8751 2.375 12.2313 2.375 12.6667C2.375 13.1022 2.73125 13.4584 3.16667 13.4584ZM3.16667 7.12508C3.60208 7.12508 3.95833 6.76883 3.95833 6.33341C3.95833 5.898 3.60208 5.54175 3.16667 5.54175C2.73125 5.54175 2.375 5.898 2.375 6.33341C2.375 6.76883 2.73125 7.12508 3.16667 7.12508ZM6.33333 10.2917H15.8333C16.2688 10.2917 16.625 9.9355 16.625 9.50008C16.625 9.06466 16.2688 8.70841 15.8333 8.70841H6.33333C5.89792 8.70841 5.54167 9.06466 5.54167 9.50008C5.54167 9.9355 5.89792 10.2917 6.33333 10.2917ZM6.33333 13.4584H15.8333C16.2688 13.4584 16.625 13.1022 16.625 12.6667C16.625 12.2313 16.2688 11.8751 15.8333 11.8751H6.33333C5.89792 11.8751 5.54167 12.2313 5.54167 12.6667C5.54167 13.1022 5.89792 13.4584 6.33333 13.4584ZM5.54167 6.33341C5.54167 6.76883 5.89792 7.12508 6.33333 7.12508H15.8333C16.2688 7.12508 16.625 6.76883 16.625 6.33341C16.625 5.898 16.2688 5.54175 15.8333 5.54175H6.33333C5.89792 5.54175 5.54167 5.898 5.54167 6.33341Z" fill="#374151"/>
</g>
</svg>
